<svg xmlns="http://www.w3.org/2000/svg" fill="none" viewBox="0 0 512 512">
  <path fill="#94febf" d="M513.28 248.94a222 222 0 00-220.7-213.01 219.43 219.43 0 00-182.22 97.52A145 145 0 01247.66 0 219.43 219.43 0 0035.93 219.43a215.58 215.58 0 0098.8 182.21A145 145 0 010 264.34a219.43 219.43 0 00401.64 115.49A146.29 146.29 0 01264.34 512a219.43 219.43 0 00211.73-219.43 221.99 221.99 0 00-97.52-182.21 151.42 151.42 0 01134.73 138.58zm-256.64 100.1a94.96 94.96 0 01-66.72-26.96 91.09 91.09 0 01-25.67-65.44 92.4 92.4 0 1192.4 92.4z"/>
</svg>
